Coordinates
version=1
nRows=14
nColumns=24
inDegrees=yes

Units are S.I. units (second, meters, Newtons, ...)
Angles are in degrees.

endheader
time	pelvis_tilt	pelvis_list	pelvis_rotation	pelvis_tx	pelvis_ty	pelvis_tz	hip_flexion_r	hip_adduction_r	hip_rotation_r	knee_angle_r	ankle_angle_r	subtalar_angle_r	mtp_angle_r	hip_flexion_l	hip_adduction_l	hip_rotation_l	knee_angle_l	ankle_angle_l	subtalar_angle_l	mtp_angle_l	lumbar_extension	lumbar_bending	lumbar_rotation
      1.47500000	     15.63332053	     -1.08208483	      1.47774097	     -0.01778735	      0.94357153	      0.31295336	    -23.46891953	      5.42319312	      1.26438373	     -5.75541063	     21.34038144	      6.85949563	     15.28571443	     13.67308713	     -1.58374740	     -8.90464782	    -33.77587287	     17.35014569	      3.36103086	     37.57728995	    -29.97982765	      3.17565229	      6.04039904
      1.48000000	     15.71900602	     -1.01484044	      1.38449883	     -0.01212918	      0.94311610	      0.31281435	    -24.00446242	      5.30466357	      1.29381247	     -5.66440673	     21.58751466	      7.01821734	     15.04652577	     13.27258702	     -1.35797222	     -9.23766675	    -31.38928953	     16.51602297	      3.54760922	     37.43990012	    -30.06476133	      3.04352210	      6.08654836
      1.48500000	     15.80424084	     -0.95923057	      1.28653597	     -0.00653606	      0.94271338	      0.31261151	    -24.53204284	      5.19024506	      1.37057696	     -5.57951353	     21.77979485	      7.11818525	     14.83987361	     12.85201806	     -1.12886349	     -9.54875703	    -28.98150605	     15.67495115	      3.59975984	     37.29427498	    -30.16503970	      2.92046068	      6.25009976
      1.49000000	     15.94259448	     -0.84321914	      1.19276951	     -0.00067735	      0.94231320	      0.31242096	    -25.14211830	      5.01383050	      1.30747495	     -5.48744243	     21.97331045	      7.35392761	     14.60404358	     12.29201492	     -0.84008958	     -9.93839859	    -26.49107225	     14.84786046	      3.80068025	     37.19215044	    -30.30043107	      2.73762506	      6.39166496
      1.49500000	     15.90072383	     -0.82363028	      1.02315919	      0.00509229	      0.94162837	      0.31224750	    -25.49677329	      4.89967878	      1.48109670	     -5.49888193	     22.27419224	      7.50319853	     14.46054823	     11.94004174	     -0.64269102	    -10.34763676	    -24.07398332	     14.04074367	      3.98419256	     37.03227166	    -30.23643112	      2.62252526	      6.56355920
      1.50000000	     16.03211929	     -0.79126629	      0.96366607	      0.01068923	      0.94108656	      0.31190501	    -26.09798457	      4.80763786	      1.46343277	     -5.35302368	     22.37625186	      7.62933187	     14.36103715	     11.38745594	     -0.39587538	    -10.55697686	    -21.62656725	     13.27306371	      4.16601421	     36.91196810	    -30.37757815	      2.54495682	      6.74476852
      1.50500000	     16.10496822	     -0.76695832	      0.80580127	      0.01643638	      0.94046443	      0.31179630	    -26.58563486	      4.69249644	      1.54032488	     -5.33395913	     22.59308849	      7.84901479	     14.22500668	     10.92095796	     -0.20359139	    -11.00456191	    -19.32917579	     12.69415234	      4.53325672	     36.96356847	    -30.45797183	      2.42123015	      6.92040593
      1.51000000	     16.07040183	     -0.82036024	      0.58566671	      0.02208541	      0.93968749	      0.31179066	    -26.92011762	      4.62479870	      1.79251012	     -5.36289826	     22.79842109	      7.94378940	     14.19609699	     10.57766117	     -0.09622365	    -11.53197742	    -17.09582210	     12.15253181	      4.79641230	     36.97950977	    -30.42332029	      2.34857677	      7.22316985
      1.51500000	     16.12328267	     -0.91726833	      0.48907572	      0.02778883	      0.93898758	      0.31150978	    -27.37265086	      4.64261004	      1.85119097	     -5.35910130	     22.96248851	      8.15324475	     14.17506338	     10.12508289	      0.00368354	    -11.82489000	    -14.89671317	     11.66389945	      5.06194156	     37.05364777	    -30.47041106	      2.38461801	      7.52972124
      1.52000000	     16.19386175	     -0.92963886	      0.49161431	      0.03368271	      0.93821945	      0.31112242	    -27.83056579	      4.62200283	      1.64549772	     -5.42037193	     23.16195596	      8.49251088	     14.16439733	      9.65399607	      0.20686126	    -12.07631657	    -12.80010587	     11.30932926	      5.35679965	     37.20055033	    -30.51800727	      2.37188779	      7.56329672
      1.52500000	     16.17850963	     -0.93639918	      0.50072998	      0.03976002	      0.93732750	      0.31069027	    -28.24191082	      4.59496587	      1.43298349	     -5.41180332	     23.35606343	      8.84236997	     14.15433735	      9.28910781	      0.43384969	    -12.27991802	    -10.83017586	     11.02363972	      5.54780693	     37.31394828	    -30.45263914	      2.36559154	      7.61495311
      1.53000000	     16.04889672	     -0.98431614	      0.51854727	      0.04574315	      0.93628423	      0.31014279	    -28.46585086	      4.60776177	      1.29754182	     -5.51730802	     23.55268928	      9.07766239	     14.20126206	      9.09341774	      0.61759253	    -12.51787957	     -9.04330982	     10.77413890	      5.80507080	     37.40328758	    -30.27496456	      2.40361011	      7.70911025
      1.53500000	     15.98341922	     -1.04382581	      0.55195289	      0.05173301	      0.93527329	      0.30972233	    -28.76897604	      4.65619495	      1.08913005	     -5.60568184	     23.79089991	      9.38360893	     14.22502925	      8.90587447	      0.76219514	    -12.87757551	     -7.53493337	     10.70419366	      6.33456343	     37.57814150	    -30.15964182	      2.45180723	      7.78874251
      1.54000000	     15.90957728	     -1.15826580	      0.57891103	      0.05754513	      0.93425794	      0.30931718	    -29.04424214	      4.75588014	      1.04608902	     -5.69128484	     23.98249938	      9.60033499	     14.25366587	      8.81418181	      0.82684883	    -13.19796230	     -6.33604259	     10.79050798	      6.97215229	     37.68826898	    -30.05915446	      2.55961891	      7.87933627
